<?xml version="1.0" encoding="utf-8"?>
<!-- Generator: Adobe Illustrator 27.4.0, SVG Export Plug-In . SVG Version: 6.00 Build 0)  -->
<svg version="1.1" id="Layer_1" xmlns="http://www.w3.org/2000/svg" xmlns:xlink="http://www.w3.org/1999/xlink" x="0px" y="0px"
	 viewBox="0 0 62.9 63.8" style="enable-background:new 0 0 62.9 63.8;" xml:space="preserve">
<style type="text/css">
	.st0{fill:#00684D;}
</style>
<path class="st0" d="M13.7,14.9c5.1-5.1,10.7-7.4,17.7-7.4S44,9.8,49.1,14.9s7.4,10.7,7.4,17.7s-2.3,12.6-7.4,17.7
	s-10.7,7.4-17.7,7.4s-12.6-2.3-17.7-7.4c-4.6-5.6-7.4-11.2-7.4-18.1S9.1,19.6,13.7,14.9z M37.4,38.2c1.9-1.9,2.3-3.7,2.3-6
	s-0.9-4.2-2.3-6c-1.9-1.9-3.7-2.3-6-2.3s-4.2,0.9-6,2.3c-1.9,1.9-2.3,3.7-2.3,6s0.9,4.2,2.3,6c1.9,1.9,3.7,2.3,6,2.3
	S35.6,40,37.4,38.2z"/>
</svg>
