<?xml version="1.0" encoding="utf-8"?>
<!-- Generator: Adobe Illustrator 27.4.0, SVG Export Plug-In . SVG Version: 6.00 Build 0)  -->
<svg version="1.1" id="Layer_1" xmlns="http://www.w3.org/2000/svg" xmlns:xlink="http://www.w3.org/1999/xlink" x="0px" y="0px"
	 viewBox="0 0 62.9 63.8" style="enable-background:new 0 0 62.9 63.8;" xml:space="preserve">
<style type="text/css">
	.st0{fill:#EC684D;}
</style>
<path class="st0" d="M-0.3,27.1c0-0.7,0-1,0.3-1.4c5.8-4.7,11.5-7.1,17.3-7.1c3.4,0,6.4,0.7,8.8,2c2.7,1.4,4.4,3,5.4,4.7
	c1.4-1.7,3-3.4,5.4-4.7c2.4-1.4,5.4-2,8.5-2c5.8,0,11.2,2.4,16.9,7.1c0.3,0.3,0.7,0.7,0.3,1c0,0.3-0.3,0.7-1,1.4
	c-8.1,2.4-14.6,5.4-19,9.1c-4.4,3.7-7.8,7.8-9.5,11.9c-1,1-1.7,1.7-2,1.7c-0.3,0-0.7,0-1-0.3s-0.7-0.7-1.4-1
	c-2-4.1-5.1-7.8-9.5-11.9C15,33.9,8.6,30.9,0.1,28.5C0.1,28.1,0.1,27.8-0.3,27.1L-0.3,27.1z"/>
</svg>
